<svg width="33" height="16" viewBox="0 0 33 16" fill="none" xmlns="http://www.w3.org/2000/svg">
<path d="M1.26004 15.462C0.420035 15.462 0.0300352 15.048 0.0900352 14.22C0.246035 12.36 0.852035 7.98001 1.90804 1.08001C1.96804 0.696009 2.11804 0.426009 2.35804 0.270008C2.59804 0.114008 2.91604 0.0360082 3.31204 0.0360082C3.69604 0.0360082 3.95404 0.0960082 4.08604 0.216008C4.23004 0.336009 4.30204 0.534009 4.30204 0.810009C4.30204 0.894009 4.29004 1.05601 4.26604 1.29601C4.18204 2.10001 3.97204 3.25201 3.63604 4.75201C4.29604 3.04801 5.02804 1.84801 5.83204 1.15201C6.63604 0.456009 7.53004 0.108008 8.51404 0.108008C9.29404 0.108008 9.90604 0.384008 10.35 0.936008C10.806 1.48801 11.034 2.26801 11.034 3.27601C11.034 3.67201 10.98 4.16401 10.872 4.75201C11.472 3.09601 12.174 1.90801 12.978 1.18801C13.782 0.468008 14.706 0.108008 15.75 0.108008C16.59 0.108008 17.232 0.378008 17.676 0.918009C18.132 1.45801 18.36 2.21401 18.36 3.18601C18.36 3.60601 18.318 4.09801 18.234 4.66201C18.15 5.22601 18.036 5.91601 17.892 6.73201L17.496 8.94601C17.352 9.75001 17.208 10.686 17.064 11.754C16.92 12.822 16.824 13.638 16.776 14.202C16.74 14.658 16.62 14.982 16.416 15.174C16.212 15.366 15.888 15.462 15.444 15.462C14.592 15.462 14.166 15.102 14.166 14.382C14.166 13.974 14.232 13.332 14.364 12.456C14.508 11.568 14.706 10.422 14.958 9.01801L15.39 6.62401C15.642 5.18401 15.768 4.18801 15.768 3.63601C15.768 3.22801 15.684 2.92201 15.516 2.71801C15.348 2.50201 15.12 2.39401 14.832 2.39401C14.256 2.39401 13.662 2.76601 13.05 3.51001C12.438 4.24201 11.844 5.47201 11.268 7.20001C10.704 8.92801 10.248 11.196 9.90004 14.004C9.82804 14.556 9.69004 14.94 9.48604 15.156C9.29404 15.36 8.95804 15.462 8.47804 15.462C8.07004 15.462 7.77004 15.378 7.57804 15.21C7.39804 15.03 7.30804 14.718 7.30804 14.274C7.30804 13.698 7.37404 13.002 7.50604 12.186C7.63804 11.358 7.80604 10.41 8.01004 9.34201C8.56204 6.43801 8.83804 4.56601 8.83804 3.72601C8.83804 3.27001 8.74804 2.93401 8.56804 2.71801C8.40004 2.50201 8.13604 2.39401 7.77604 2.39401C7.18804 2.39401 6.57604 2.73601 5.94004 3.42001C5.31604 4.09201 4.70404 5.30401 4.10404 7.05601C3.50404 8.80801 3.00604 11.184 2.61004 14.184C2.50204 15.036 2.05204 15.462 1.26004 15.462ZM31.1881 0.0540091C31.6561 0.0180088 32.0041 0.0900086 32.2321 0.270008C32.4601 0.450008 32.5741 0.708008 32.5741 1.04401C32.5741 1.66801 32.2021 2.04601 31.4581 2.17801C30.4981 2.35801 28.9381 2.44801 26.7781 2.44801H26.0041C25.6321 4.38001 25.3381 5.94601 25.1221 7.14601L29.0461 7.07401C29.4901 7.07401 29.7841 7.15201 29.9281 7.30801C30.0841 7.45201 30.1621 7.66201 30.1621 7.93801C30.1621 8.34601 30.0421 8.66401 29.8021 8.89201C29.5741 9.10801 29.2321 9.21601 28.7761 9.21601L24.7621 9.25201C24.3781 11.76 24.1501 13.47 24.0781 14.382C24.0301 15.102 23.6041 15.462 22.8001 15.462C22.3681 15.462 22.0441 15.366 21.8281 15.174C21.6241 14.982 21.5221 14.718 21.5221 14.382C21.5221 13.998 21.5761 13.41 21.6841 12.618C21.8041 11.826 21.9841 10.722 22.2241 9.30601L21.1801 9.32401C20.9161 9.32401 20.6941 9.27601 20.5141 9.18001C20.3461 9.07201 20.2621 8.85001 20.2621 8.51401C20.2621 8.11801 20.3701 7.80001 20.5861 7.56001C20.8021 7.32001 21.1021 7.20001 21.4861 7.20001L22.5841 7.18201C22.7281 6.37801 23.0101 4.91401 23.4301 2.79001L23.5021 2.41201L22.4941 2.35801C21.9181 2.31001 21.4861 2.19001 21.1981 1.99801C20.9221 1.80601 20.7841 1.50601 20.7841 1.09801C20.7841 0.762009 20.8921 0.522008 21.1081 0.378008C21.3241 0.234009 21.6721 0.162009 22.1521 0.162009C22.6441 0.162009 23.3581 0.174009 24.2941 0.198008C24.9901 0.234009 25.6981 0.252009 26.4181 0.252009C27.8821 0.252009 29.4721 0.186009 31.1881 0.0540091Z" fill="#F88000"/>
</svg>
