<svg width="60" height="16" viewBox="0 0 60 16" fill="none" xmlns="http://www.w3.org/2000/svg">
<path d="M29.288 15.384C29.2827 15.416 29.2507 15.424 29.192 15.408C29.1387 15.3973 29.0907 15.36 29.048 15.296C29.0053 15.1947 28.984 15.1013 28.984 15.016C28.984 14.9307 28.9867 14.8027 28.992 14.632C29.024 14.4453 29.0667 14.2027 29.12 13.904C29.1787 13.6 29.2453 13.2613 29.32 12.888C29.4 12.5093 29.4853 12.1147 29.576 11.704C29.64 11.4907 29.6907 11.296 29.728 11.12C29.7707 10.9387 29.8027 10.792 29.824 10.68C29.8453 10.568 29.856 10.512 29.856 10.512C29.856 10.496 29.84 10.504 29.808 10.536C29.7813 10.5627 29.7547 10.5947 29.728 10.632C29.7013 10.6693 29.6907 10.6987 29.696 10.72C29.696 10.72 29.6773 10.7467 29.64 10.8C29.6027 10.8533 29.5547 10.9253 29.496 11.016C29.4427 11.0693 29.3787 11.176 29.304 11.336C29.2293 11.496 29.1467 11.6453 29.056 11.784C28.9707 11.944 28.88 12.1173 28.784 12.304C28.688 12.4853 28.6027 12.6373 28.528 12.76C28.48 12.8293 28.432 12.9093 28.384 13C28.336 13.0907 28.3067 13.1493 28.296 13.176C28.2747 13.2347 28.2373 13.3067 28.184 13.392C28.1307 13.472 28.072 13.552 28.008 13.632C27.976 13.68 27.944 13.7307 27.912 13.784C27.88 13.832 27.8533 13.8747 27.832 13.912C27.816 13.944 27.808 13.96 27.808 13.96C27.808 13.976 27.7813 14.024 27.728 14.104C27.68 14.184 27.6187 14.272 27.544 14.368C27.4747 14.464 27.408 14.5467 27.344 14.616C27.1573 14.8133 27.008 14.9307 26.896 14.968C26.784 15 26.6587 14.952 26.52 14.824C26.4507 14.7387 26.4 14.6427 26.368 14.536C26.336 14.424 26.3227 14.288 26.328 14.128C26.3333 13.9627 26.352 13.7573 26.384 13.512C26.4213 13.3253 26.456 13.1387 26.488 12.952C26.52 12.76 26.5493 12.5813 26.576 12.416C26.608 12.2453 26.6347 12.1013 26.656 11.984C26.6827 11.8667 26.704 11.7893 26.72 11.752C26.7307 11.6453 26.728 11.5867 26.712 11.576C26.696 11.5653 26.664 11.5973 26.616 11.672C26.5947 11.7093 26.5387 11.8027 26.448 11.952C26.3573 12.096 26.2507 12.2747 26.128 12.488C26.0107 12.7013 25.8933 12.9333 25.776 13.184C25.5573 13.5893 25.376 13.9253 25.232 14.192C25.0933 14.4533 24.9813 14.6613 24.896 14.816C24.816 14.9707 24.7573 15.0853 24.72 15.16C24.6827 15.2347 24.656 15.2853 24.64 15.312C24.624 15.3387 24.6107 15.3573 24.6 15.368C24.552 15.368 24.5013 15.3467 24.448 15.304C24.4 15.2667 24.3493 15.2213 24.296 15.168C24.28 15.1307 24.272 15.0933 24.272 15.056C24.2773 15.0187 24.296 14.9653 24.328 14.896C24.36 14.8213 24.408 14.7093 24.472 14.56C24.5413 14.4213 24.6053 14.3013 24.664 14.2C24.7227 14.0933 24.768 14.0293 24.8 14.008C24.8267 13.9653 24.8507 13.9227 24.872 13.88C24.8933 13.8373 24.9067 13.7867 24.912 13.728C24.9387 13.696 24.9787 13.632 25.032 13.536C25.0907 13.4347 25.1493 13.3253 25.208 13.208C25.2507 13.1387 25.304 13.048 25.368 12.936C25.4373 12.824 25.5093 12.7013 25.584 12.568C25.6587 12.4293 25.7253 12.2987 25.784 12.176C26.0293 11.7547 26.2373 11.4 26.408 11.112C26.5787 10.8187 26.7067 10.632 26.792 10.552C26.8187 10.5253 26.8453 10.488 26.872 10.44C26.904 10.392 26.92 10.3493 26.92 10.312C26.92 10.2 26.9413 10.0987 26.984 10.008C27.032 9.912 27.08 9.86933 27.128 9.88C27.1813 9.88 27.2293 9.88533 27.272 9.896C27.3147 9.90667 27.36 9.94133 27.408 10C27.4507 10.064 27.488 10.128 27.52 10.192C27.552 10.256 27.5493 10.384 27.512 10.576C27.512 10.6507 27.504 10.736 27.488 10.832C27.472 10.9227 27.456 11.008 27.44 11.088C27.4293 11.1627 27.4213 11.2213 27.416 11.264C27.3467 11.472 27.2827 11.7067 27.224 11.968C27.1653 12.224 27.112 12.4853 27.064 12.752C27.016 13.0133 26.976 13.2587 26.944 13.488C26.912 13.712 26.8907 13.8987 26.88 14.048C26.8747 14.192 26.88 14.2747 26.896 14.296C26.9333 14.3173 26.9653 14.32 26.992 14.304C27.0187 14.288 27.064 14.2187 27.128 14.096C27.1653 14.032 27.216 13.9547 27.28 13.864C27.3493 13.768 27.416 13.68 27.48 13.6C27.5227 13.5253 27.5893 13.4133 27.68 13.264C27.7707 13.1147 27.8853 12.9227 28.024 12.688C28.168 12.4533 28.3387 12.168 28.536 11.832C28.7387 11.4907 28.968 11.096 29.224 10.648C29.3467 10.4613 29.4613 10.28 29.568 10.104C29.68 9.92267 29.7707 9.80533 29.84 9.752C29.9147 9.68267 29.992 9.66667 30.072 9.704C30.152 9.736 30.2213 9.80533 30.28 9.912C30.344 10.0187 30.3787 10.152 30.384 10.312C30.3893 10.3867 30.3787 10.5067 30.352 10.672C30.3307 10.8373 30.296 11.0267 30.248 11.24C30.2 11.448 30.1387 11.664 30.064 11.888C30.048 11.9787 30.0213 12.0933 29.984 12.232C29.952 12.3653 29.9147 12.504 29.872 12.648C29.8293 12.792 29.7867 12.928 29.744 13.056C29.7173 13.232 29.6853 13.4053 29.648 13.576C29.616 13.7467 29.6053 13.8613 29.616 13.92C29.568 14.0053 29.536 14.128 29.52 14.288C29.504 14.448 29.496 14.6133 29.496 14.784C29.4747 14.992 29.4587 15.1387 29.448 15.224C29.4373 15.3093 29.4187 15.3493 29.392 15.344C29.3227 15.3227 29.288 15.336 29.288 15.384ZM31.9658 14.72C31.8538 14.816 31.7231 14.872 31.5738 14.888C31.4298 14.904 31.2885 14.8827 31.1498 14.824C31.0111 14.76 30.8965 14.664 30.8058 14.536C30.7151 14.4187 30.6565 14.2853 30.6298 14.136C30.6031 13.9813 30.6005 13.7813 30.6218 13.536C30.6378 13.328 30.7045 13.12 30.8218 12.912C30.9391 12.6987 31.0805 12.5093 31.2458 12.344C31.4165 12.1787 31.5845 12.064 31.7498 12C31.8298 11.9467 31.8965 11.9227 31.9498 11.928C32.0085 11.928 32.0965 11.9333 32.2138 11.944C32.3365 11.96 32.4271 11.984 32.4858 12.016C32.5498 12.048 32.6005 12.0907 32.6378 12.144C32.7178 12.224 32.7711 12.304 32.7978 12.384C32.8245 12.4587 32.8378 12.5333 32.8378 12.608C32.8165 12.7253 32.7365 12.8693 32.5978 13.04C32.4645 13.2053 32.2885 13.3413 32.0698 13.448C31.9525 13.4853 31.8245 13.5013 31.6858 13.496C31.5471 13.4907 31.4325 13.456 31.3418 13.392C31.2405 13.3493 31.1738 13.3573 31.1418 13.416C31.1098 13.4693 31.0805 13.6027 31.0538 13.816C31.0325 14.0187 31.0485 14.168 31.1018 14.264C31.1551 14.3547 31.2271 14.408 31.3178 14.424C31.4245 14.4453 31.5071 14.4613 31.5658 14.472C31.6298 14.4773 31.7071 14.4533 31.7978 14.4C31.8831 14.3467 31.9365 14.3173 31.9578 14.312C31.9791 14.3013 31.9951 14.2907 32.0058 14.28C32.0218 14.264 32.0565 14.2293 32.1098 14.176C32.1471 14.1387 32.1765 14.112 32.1978 14.096C32.2191 14.0747 32.2431 14.064 32.2698 14.064C32.2965 14.064 32.3205 14.0773 32.3418 14.104C32.3631 14.1253 32.3845 14.1413 32.4058 14.152C32.4591 14.152 32.4698 14.184 32.4378 14.248C32.4111 14.312 32.3551 14.3893 32.2698 14.48C32.1845 14.5653 32.0831 14.6453 31.9658 14.72ZM31.9578 13.024C32.0165 12.9973 32.0778 12.96 32.1418 12.912C32.2058 12.8587 32.2591 12.8027 32.3018 12.744C32.3498 12.68 32.3738 12.6267 32.3738 12.584C32.3738 12.5093 32.3391 12.448 32.2698 12.4C32.2005 12.3467 32.0965 12.3387 31.9578 12.376C31.8991 12.392 31.8325 12.432 31.7578 12.496C31.6831 12.5547 31.6111 12.6213 31.5418 12.696C31.4778 12.7707 31.4245 12.8373 31.3818 12.896C31.3445 12.9547 31.3311 12.9893 31.3418 13C31.3578 13.0267 31.4031 13.048 31.4778 13.064C31.5525 13.0747 31.6351 13.0773 31.7258 13.072C31.8218 13.0667 31.8991 13.0507 31.9578 13.024ZM35.9914 14.632C35.8847 14.632 35.7967 14.6107 35.7274 14.568C35.658 14.52 35.5994 14.4427 35.5514 14.336C35.53 14.2613 35.5114 14.1787 35.4954 14.088C35.4847 13.992 35.4794 13.904 35.4794 13.824C35.4794 13.7387 35.4874 13.6827 35.5034 13.656C35.5247 13.6347 35.5327 13.5973 35.5274 13.544C35.5274 13.4853 35.5274 13.424 35.5274 13.36C35.522 13.2533 35.4954 13.1947 35.4474 13.184C35.4047 13.168 35.3407 13.184 35.2554 13.232C35.1594 13.2907 35.034 13.3707 34.8794 13.472C34.7247 13.568 34.562 13.6747 34.3914 13.792C34.226 13.9093 34.0687 14.032 33.9194 14.16C33.802 14.288 33.73 14.3867 33.7034 14.456C33.682 14.52 33.65 14.552 33.6074 14.552C33.5647 14.5733 33.5274 14.576 33.4954 14.56C33.4687 14.5387 33.4287 14.5067 33.3754 14.464C33.338 14.4213 33.3007 14.3813 33.2634 14.344C33.226 14.3013 33.202 14.2693 33.1914 14.248C33.1914 14.2213 33.1994 14.1653 33.2154 14.08C33.2314 13.9947 33.25 13.9093 33.2714 13.824C33.298 13.7387 33.3167 13.6827 33.3274 13.656C33.354 13.656 33.3754 13.6293 33.3914 13.576C33.4127 13.5227 33.4447 13.464 33.4874 13.4C33.498 13.336 33.5247 13.2507 33.5674 13.144C33.6154 13.032 33.658 12.9333 33.6954 12.848C33.77 12.72 33.8207 12.6133 33.8474 12.528C33.8794 12.4427 33.9007 12.336 33.9114 12.208C33.906 12.1867 33.9114 12.168 33.9274 12.152C33.9434 12.1307 33.962 12.12 33.9834 12.12C34.026 12.0773 34.0767 12.0667 34.1354 12.088C34.194 12.104 34.2474 12.144 34.2954 12.208C34.3914 12.336 34.4287 12.4693 34.4074 12.608C34.3914 12.7413 34.306 12.9333 34.1514 13.184C34.114 13.2693 34.0847 13.336 34.0634 13.384C34.0474 13.4267 34.0394 13.4613 34.0394 13.488C34.0394 13.488 34.066 13.4693 34.1194 13.432C34.178 13.3947 34.242 13.352 34.3114 13.304C34.386 13.2507 34.4447 13.2107 34.4874 13.184C34.514 13.1573 34.5754 13.1093 34.6714 13.04C34.7674 12.9707 34.8687 12.904 34.9754 12.84C35.0874 12.7707 35.17 12.7307 35.2234 12.72C35.266 12.6987 35.3114 12.68 35.3594 12.664C35.4074 12.6427 35.442 12.632 35.4634 12.632C35.506 12.632 35.5594 12.656 35.6234 12.704C35.6927 12.7467 35.7567 12.8 35.8154 12.864C35.874 12.9227 35.9087 12.9733 35.9194 13.016C35.9194 13.0373 35.9194 13.0587 35.9194 13.08C35.9247 13.1013 35.93 13.1227 35.9354 13.144C35.9567 13.2133 35.9674 13.3067 35.9674 13.424C35.9727 13.5413 35.97 13.648 35.9594 13.744C35.9487 13.84 35.93 13.896 35.9034 13.912C35.9034 13.912 35.9034 13.92 35.9034 13.936C35.9087 13.9467 35.922 13.952 35.9434 13.952C35.9434 13.9733 35.9434 13.9867 35.9434 13.992C35.9167 13.992 35.906 14.016 35.9114 14.064C35.9167 14.1067 35.9327 14.1547 35.9594 14.208C35.9914 14.2613 36.0234 14.304 36.0554 14.336C36.1194 14.4 36.146 14.4613 36.1354 14.52C36.1247 14.5733 36.0767 14.6107 35.9914 14.632ZM37.4409 14.768C37.3983 14.7787 37.3423 14.784 37.2729 14.784C37.2036 14.7787 37.1423 14.7707 37.0889 14.76C37.0409 14.744 37.0169 14.728 37.0169 14.712C37.0169 14.6853 37.0036 14.672 36.9769 14.672C36.9769 14.672 36.9636 14.6613 36.9369 14.64C36.9156 14.6187 36.8809 14.5973 36.8329 14.576C36.7849 14.5013 36.7609 14.4213 36.7609 14.336C36.7609 14.2453 36.7849 14.104 36.8329 13.912C36.8489 13.7787 36.8996 13.624 36.9849 13.448C37.0756 13.2667 37.1849 13.0827 37.3129 12.896C37.4409 12.7093 37.5743 12.5413 37.7129 12.392C37.8569 12.2427 37.9876 12.1333 38.1049 12.064C38.1796 11.9893 38.2703 11.9493 38.3769 11.944C38.4836 11.9387 38.5849 11.9627 38.6809 12.016C38.7343 12.0427 38.7876 12.0853 38.8409 12.144C38.8943 12.2027 38.9449 12.2667 38.9929 12.336C39.0409 12.4053 39.0809 12.4747 39.1129 12.544C39.1289 12.6027 39.1369 12.656 39.1369 12.704C39.1423 12.7467 39.1423 12.8 39.1369 12.864C39.1369 12.928 39.1289 13.024 39.1129 13.152C39.0863 13.248 39.0623 13.3653 39.0409 13.504C39.0249 13.6427 39.0169 13.7627 39.0169 13.864C39.0063 13.9653 39.0169 14.0373 39.0489 14.08C39.0863 14.1227 39.1396 14.1253 39.2089 14.088C39.2729 14.056 39.3343 14.0427 39.3929 14.048C39.4516 14.048 39.4969 14.064 39.5289 14.096C39.5663 14.128 39.5849 14.176 39.5849 14.24C39.5849 14.304 39.5529 14.3707 39.4889 14.44C39.4303 14.504 39.3556 14.56 39.2649 14.608C39.1796 14.6507 39.0969 14.672 39.0169 14.672C38.9583 14.672 38.9023 14.6373 38.8489 14.568C38.7956 14.4933 38.7476 14.4053 38.7049 14.304C38.6676 14.1973 38.6329 14.096 38.6009 14L38.5529 13.816L38.2089 14.144C38.1396 14.2187 38.0703 14.288 38.0009 14.352C37.9369 14.4107 37.8969 14.4533 37.8809 14.48C37.8543 14.528 37.8036 14.576 37.7289 14.624C37.6596 14.672 37.5636 14.72 37.4409 14.768ZM37.4649 14.296C37.5556 14.2427 37.6596 14.1653 37.7769 14.064C37.8943 13.9573 38.0089 13.8427 38.1209 13.72C38.2329 13.592 38.3263 13.4747 38.4009 13.368C38.4916 13.2453 38.5609 13.1307 38.6089 13.024C38.6569 12.9173 38.6916 12.816 38.7129 12.72C38.6916 12.6613 38.6569 12.6 38.6089 12.536C38.5609 12.4667 38.5183 12.4293 38.4809 12.424C38.3636 12.424 38.2383 12.4987 38.1049 12.648C37.9769 12.792 37.8516 12.9493 37.7289 13.12C37.7076 13.1467 37.6783 13.1893 37.6409 13.248C37.6036 13.3067 37.5663 13.3627 37.5289 13.416C37.4969 13.464 37.4756 13.496 37.4649 13.512C37.4489 13.5333 37.4169 13.5947 37.3689 13.696C37.3263 13.792 37.2836 13.8907 37.2409 13.992C37.1983 14.088 37.1769 14.152 37.1769 14.184C37.1769 14.216 37.1796 14.2507 37.1849 14.288C37.1956 14.3253 37.2223 14.3493 37.2649 14.36C37.3076 14.3707 37.3743 14.3493 37.4649 14.296ZM40.3559 14.984L40.4199 14.608C40.4572 14.368 40.4945 14.144 40.5319 13.936C40.5692 13.728 40.6039 13.56 40.6359 13.432C40.6732 13.304 40.6972 13.24 40.7079 13.24C40.7292 13.2293 40.7399 13.208 40.7399 13.176C40.7399 13.1387 40.7425 13.0933 40.7479 13.04L40.7639 12.84L40.6439 12.856C40.5799 12.8453 40.5425 12.832 40.5319 12.816C40.5212 12.8 40.5159 12.752 40.5159 12.672C40.5212 12.6187 40.5292 12.5813 40.5399 12.56C40.5505 12.5333 40.5799 12.5173 40.6279 12.512C40.7132 12.4853 40.8012 12.4373 40.8919 12.368C40.9879 12.2933 41.0332 12.2293 41.0279 12.176C41.0332 12.1333 41.0519 12.048 41.0839 11.92C41.1212 11.7867 41.1692 11.64 41.2279 11.48C41.2865 11.3147 41.3505 11.1653 41.4199 11.032C41.4412 10.9627 41.4599 10.8933 41.4759 10.824C41.4972 10.7493 41.5079 10.6933 41.5079 10.656C41.5185 10.6133 41.5319 10.5653 41.5479 10.512C41.5639 10.4587 41.5719 10.4213 41.5719 10.4C41.6039 10.3413 41.6092 10.3093 41.5879 10.304C41.5665 10.2933 41.5159 10.2933 41.4359 10.304C41.4359 10.304 41.4119 10.3093 41.3639 10.32C41.3159 10.3253 41.2625 10.3253 41.2039 10.32C41.1185 10.3413 41.0599 10.3493 41.0279 10.344C40.9959 10.3387 40.9692 10.3147 40.9479 10.272C40.8999 10.224 40.8785 10.1733 40.8839 10.12C40.8945 10.0667 40.9239 10.0427 40.9719 10.048C40.9985 10.0533 41.0199 10.0507 41.0359 10.04C41.0572 10.024 41.0785 10.0053 41.0999 9.984C41.1212 9.96267 41.1719 9.93867 41.2519 9.912C41.3319 9.88 41.4305 9.86133 41.5479 9.856C41.6012 9.85067 41.6652 9.84 41.7399 9.824C41.8199 9.80267 41.8919 9.77867 41.9559 9.752C42.0199 9.72533 42.0572 9.70667 42.0679 9.696C42.0679 9.66933 42.0812 9.656 42.1079 9.656C42.1399 9.656 42.1665 9.656 42.1879 9.656C42.2092 9.65067 42.2492 9.64533 42.3079 9.64C42.3719 9.62933 42.4119 9.62667 42.4279 9.632C42.4705 9.61067 42.5639 9.59467 42.7079 9.584C42.8519 9.568 43.0705 9.56267 43.3639 9.568C43.4492 9.57333 43.5212 9.57867 43.5799 9.584C43.6385 9.584 43.6679 9.57333 43.6679 9.552C43.6679 9.552 43.7025 9.55733 43.7719 9.568C43.8412 9.57333 43.9185 9.58933 44.0039 9.616C44.1319 9.62133 44.2332 9.64 44.3079 9.672C44.3825 9.69867 44.4359 9.74133 44.4679 9.8C44.5052 9.85867 44.5239 9.93867 44.5239 10.04L44.5559 10.224L44.3399 10.152C44.2972 10.1467 44.2225 10.1387 44.1159 10.128C44.0092 10.112 43.8919 10.0987 43.7639 10.088C43.6412 10.0773 43.5239 10.0693 43.4119 10.064C43.2999 10.0533 43.2199 10.0533 43.1719 10.064C43.1185 10.064 43.0625 10.0693 43.0039 10.08C42.9452 10.0853 42.8865 10.0853 42.8279 10.08C42.7532 10.1013 42.6812 10.112 42.6119 10.112C42.5479 10.112 42.5052 10.1093 42.4839 10.104C42.4305 10.1253 42.3825 10.136 42.3399 10.136C42.3025 10.136 42.2679 10.1493 42.2359 10.176C42.2359 10.176 42.2199 10.184 42.1879 10.2C42.1612 10.216 42.1372 10.224 42.1159 10.224C42.0945 10.2187 42.0839 10.2293 42.0839 10.256C42.0839 10.2827 42.0785 10.336 42.0679 10.416C42.0732 10.4907 42.0705 10.5573 42.0599 10.616C42.0492 10.6747 42.0279 10.7493 41.9959 10.84C41.9639 10.9307 41.9132 11.064 41.8439 11.24C41.8119 11.3307 41.7745 11.432 41.7319 11.544C41.6892 11.6507 41.6625 11.7333 41.6519 11.792C41.5932 11.952 41.5372 12.0747 41.4839 12.16C41.4945 12.2133 41.5025 12.2427 41.5079 12.248C41.5185 12.248 41.5425 12.232 41.5799 12.2C41.6225 12.216 41.6572 12.216 41.6839 12.2C41.7159 12.184 41.7425 12.1733 41.7639 12.168C41.7852 12.168 41.8065 12.168 41.8279 12.168C41.8545 12.168 41.8865 12.1733 41.9239 12.184C41.9185 12.1627 41.9399 12.152 41.9879 12.152C42.0359 12.1467 42.0892 12.1413 42.1479 12.136C42.2065 12.1093 42.2785 12.0907 42.3639 12.08C42.4545 12.064 42.5185 12.0453 42.5559 12.024C42.6145 11.9973 42.6545 11.984 42.6759 11.984C42.7025 11.984 42.7505 12 42.8199 12.032C42.8572 12.08 42.8839 12.1387 42.8999 12.208C42.9159 12.272 42.9212 12.3333 42.9159 12.392C42.9105 12.4453 42.8945 12.4827 42.8679 12.504C42.8679 12.504 42.8412 12.5147 42.7879 12.536C42.7345 12.552 42.6785 12.5707 42.6199 12.592C42.5612 12.5813 42.5052 12.5813 42.4519 12.592C42.3985 12.6027 42.3612 12.6133 42.3399 12.624C42.2279 12.6933 42.0439 12.7173 41.7879 12.696C41.7505 12.7227 41.7052 12.736 41.6519 12.736C41.6039 12.736 41.5665 12.7467 41.5399 12.768C41.5239 12.768 41.4919 12.7733 41.4439 12.784C41.4012 12.7893 41.3692 12.7893 41.3479 12.784C41.3265 12.784 41.3132 12.8 41.3079 12.832C41.3025 12.8587 41.2999 12.8827 41.2999 12.904C41.2999 12.9253 41.2919 12.9467 41.2759 12.968C41.2599 12.9893 41.2519 13 41.2519 13C41.2199 13.032 41.2012 13.0667 41.1959 13.104C41.1959 13.104 41.1932 13.136 41.1879 13.2C41.1879 13.264 41.1745 13.3333 41.1479 13.408C41.1052 13.5467 41.0652 13.688 41.0279 13.832C40.9905 13.976 40.9639 14.1013 40.9479 14.208C40.9319 14.3093 40.9292 14.3707 40.9399 14.392C40.9612 14.4133 40.9825 14.432 41.0039 14.448C41.0252 14.464 41.0492 14.4747 41.0759 14.48C41.1025 14.4587 41.1265 14.4667 41.1479 14.504C41.1745 14.5413 41.1905 14.5893 41.1959 14.648C41.1905 14.6693 41.1665 14.712 41.1239 14.776C41.0812 14.8347 41.0305 14.9013 40.9719 14.976C40.9025 15.1413 40.8279 15.232 40.7479 15.248C40.6732 15.264 40.5825 15.224 40.4759 15.128L40.3559 14.984ZM43.9523 14.736C43.8883 14.7467 43.8189 14.736 43.7443 14.704C43.6696 14.672 43.6029 14.6267 43.5443 14.568C43.4909 14.5093 43.4563 14.448 43.4403 14.384C43.4189 14.272 43.4323 14.1333 43.4803 13.968C43.5336 13.7973 43.6083 13.6187 43.7043 13.432C43.8056 13.24 43.9176 13.056 44.0403 12.88C44.1683 12.704 44.2989 12.552 44.4323 12.424C44.5709 12.2907 44.6989 12.2 44.8163 12.152C44.8749 12.1147 44.9203 12.0907 44.9523 12.08C44.9896 12.064 45.0269 12.0613 45.0643 12.072C45.1069 12.0827 45.1683 12.1093 45.2483 12.152C45.3229 12.1733 45.3789 12.1973 45.4163 12.224C45.4536 12.2507 45.5016 12.304 45.5603 12.384C45.6029 12.464 45.6349 12.544 45.6563 12.624C45.6776 12.704 45.6963 12.7947 45.7123 12.896C45.7549 13.0293 45.7709 13.1173 45.7603 13.16C45.7496 13.1973 45.7336 13.2267 45.7123 13.248C45.6696 13.3013 45.6589 13.328 45.6803 13.328C45.6803 13.328 45.6776 13.3387 45.6723 13.36C45.6723 13.376 45.6616 13.4027 45.6403 13.44C45.6029 13.5573 45.5736 13.68 45.5523 13.808C45.5363 13.9307 45.5389 14.032 45.5603 14.112C45.6029 14.2293 45.6803 14.2987 45.7923 14.32C45.9043 14.3413 46.0189 14.2933 46.1363 14.176C46.1949 14.1333 46.2509 14.096 46.3043 14.064C46.3576 14.0267 46.3843 14.0293 46.3843 14.072C46.3843 14.072 46.3923 14.08 46.4083 14.096C46.4243 14.1067 46.4429 14.112 46.4643 14.112C46.4909 14.112 46.5069 14.1227 46.5123 14.144C46.5229 14.1653 46.5229 14.1947 46.5123 14.232C46.5069 14.264 46.4909 14.3013 46.4643 14.344C46.3843 14.424 46.3443 14.4773 46.3443 14.504C46.3443 14.504 46.3336 14.5147 46.3123 14.536C46.2963 14.552 46.2669 14.5787 46.2243 14.616C46.1283 14.6747 46.0056 14.704 45.8563 14.704C45.7123 14.704 45.6003 14.6747 45.5203 14.616C45.4403 14.5573 45.3656 14.4773 45.2963 14.376C45.2323 14.2747 45.1896 14.1867 45.1683 14.112L45.1283 14.032L44.8963 14.184C44.8376 14.2427 44.7736 14.2987 44.7043 14.352C44.6403 14.4053 44.5976 14.4427 44.5763 14.464C44.5603 14.4853 44.5416 14.504 44.5203 14.52C44.5043 14.536 44.4856 14.544 44.4643 14.544C44.4429 14.544 44.4243 14.544 44.4083 14.544C44.3923 14.544 44.3843 14.544 44.3843 14.544C44.3843 14.5653 44.3576 14.592 44.3043 14.624C44.2563 14.656 44.1976 14.6827 44.1283 14.704C44.0643 14.7253 44.0056 14.736 43.9523 14.736ZM43.8723 14.304C43.9043 14.304 43.9603 14.28 44.0403 14.232C44.1256 14.1787 44.2189 14.1173 44.3203 14.048C44.4269 13.9787 44.5203 13.9093 44.6003 13.84C44.6856 13.7707 44.7443 13.7173 44.7763 13.68C44.7976 13.6587 44.8323 13.624 44.8803 13.576C44.9283 13.5227 44.9709 13.4773 45.0082 13.44C45.1309 13.3013 45.2163 13.1493 45.2643 12.984C45.3123 12.8133 45.3069 12.68 45.2483 12.584C45.2269 12.5253 45.2003 12.4933 45.1683 12.488C45.1363 12.4827 45.0696 12.5013 44.9683 12.544C44.9043 12.5813 44.8243 12.6533 44.7283 12.76C44.6376 12.8613 44.5389 12.9813 44.4323 13.12C44.3309 13.2533 44.2349 13.392 44.1443 13.536C44.0536 13.68 43.9789 13.8133 43.9203 13.936C43.8616 14.0587 43.8322 14.1547 43.8322 14.224C43.8322 14.2453 43.8376 14.264 43.8483 14.28C43.8643 14.296 43.8723 14.304 43.8723 14.304ZM47.2255 14.752C47.2095 14.7573 47.1828 14.7547 47.1455 14.744C47.1082 14.7333 47.0708 14.72 47.0335 14.704C46.9962 14.688 46.9722 14.6747 46.9615 14.664C46.9402 14.6427 46.9188 14.6107 46.8975 14.568C46.8815 14.5253 46.8815 14.464 46.8975 14.384C46.9135 14.2987 46.9668 14.1893 47.0575 14.056C47.0842 14.0027 47.1162 13.9227 47.1535 13.816C47.1908 13.7093 47.2282 13.5973 47.2655 13.48C47.3082 13.3573 47.3455 13.248 47.3775 13.152C47.4148 13.056 47.4415 12.9893 47.4575 12.952C47.4682 12.8613 47.4628 12.7973 47.4415 12.76C47.4255 12.7173 47.3802 12.6933 47.3055 12.688C47.2522 12.688 47.2095 12.6827 47.1775 12.672C47.1508 12.6613 47.1375 12.608 47.1375 12.512C47.1482 12.4373 47.1668 12.3867 47.1935 12.36C47.2255 12.328 47.2682 12.2933 47.3215 12.256C47.3748 12.2293 47.4282 12.2107 47.4815 12.2C47.5402 12.1893 47.5962 12.1867 47.6495 12.192C47.7028 12.1973 47.7455 12.216 47.7775 12.248C47.8148 12.2693 47.8388 12.3173 47.8495 12.392C47.8602 12.4613 47.8655 12.5333 47.8655 12.608C47.8708 12.6827 47.8762 12.7387 47.8815 12.776C47.9348 12.7333 48.0068 12.6747 48.0975 12.6C48.1935 12.52 48.2762 12.4453 48.3455 12.376C48.4308 12.3173 48.5322 12.2587 48.6495 12.2C48.7668 12.136 48.8522 12.104 48.9055 12.104C48.9642 12.104 49.0228 12.12 49.0815 12.152C49.1402 12.1787 49.1802 12.2133 49.2015 12.256C49.2548 12.3467 49.2788 12.4267 49.2735 12.496C49.2735 12.5653 49.2442 12.6373 49.1855 12.712C49.1322 12.7813 49.0655 12.8293 48.9855 12.856C48.9108 12.8827 48.8628 12.896 48.8415 12.896C48.8095 12.896 48.7695 12.872 48.7215 12.824C48.6735 12.776 48.6468 12.736 48.6415 12.704C48.6415 12.688 48.6068 12.704 48.5375 12.752C48.4735 12.7947 48.4015 12.8507 48.3215 12.92C48.2415 12.984 48.1748 13.0427 48.1215 13.096C48.0308 13.208 47.9348 13.36 47.8335 13.552C47.7322 13.744 47.6122 13.976 47.4735 14.248C47.4095 14.3813 47.3642 14.496 47.3375 14.592C47.3108 14.6827 47.2735 14.736 47.2255 14.752ZM52.4043 14.824C52.303 14.8507 52.2283 14.8613 52.1803 14.856C52.1323 14.8453 52.0683 14.8 51.9883 14.72C51.9403 14.6453 51.8976 14.5787 51.8603 14.52C51.823 14.4613 51.799 14.3573 51.7883 14.208C51.783 14.1067 51.7883 13.9973 51.8043 13.88C51.8256 13.7573 51.8336 13.6693 51.8283 13.616C51.871 13.4187 51.887 13.2613 51.8763 13.144C51.871 13.0213 51.855 12.96 51.8283 12.96C51.7696 12.9493 51.663 13.008 51.5083 13.136C51.359 13.2587 51.1856 13.4213 50.9883 13.624C50.7963 13.8213 50.6043 14.0293 50.4123 14.248C50.311 14.3867 50.239 14.4907 50.1963 14.56C50.1536 14.624 50.1216 14.656 50.1003 14.656C50.063 14.656 50.0123 14.6427 49.9483 14.616C49.8843 14.5893 49.8283 14.5573 49.7803 14.52C49.7323 14.4773 49.7056 14.44 49.7003 14.408C49.7003 14.3867 49.7136 14.3307 49.7403 14.24C49.767 14.144 49.799 14.0347 49.8363 13.912C49.879 13.7893 49.9163 13.6747 49.9483 13.568C49.9803 13.4613 50.0043 13.3867 50.0203 13.344C50.0683 13.2053 50.1243 13.0373 50.1883 12.84C50.2576 12.6373 50.319 12.4587 50.3723 12.304C50.3936 12.2347 50.431 12.136 50.4843 12.008C50.5376 11.8747 50.591 11.7413 50.6443 11.608C50.6976 11.4747 50.735 11.376 50.7563 11.312C50.7723 11.2693 50.8016 11.1947 50.8443 11.088C50.887 10.976 50.9323 10.8533 50.9803 10.72C51.0336 10.5867 51.0816 10.464 51.1243 10.352C51.1723 10.2347 51.2043 10.1493 51.2203 10.096C51.215 10.048 51.2176 10.0053 51.2283 9.968C51.2443 9.92533 51.2603 9.89333 51.2763 9.872C51.2976 9.872 51.3216 9.872 51.3483 9.872C51.375 9.86667 51.3883 9.864 51.3883 9.864C51.3883 9.85333 51.4096 9.864 51.4523 9.896C51.495 9.928 51.535 9.968 51.5723 10.016C51.615 10.0587 51.6363 10.096 51.6363 10.128C51.663 10.1973 51.6656 10.288 51.6443 10.4C51.623 10.5067 51.567 10.6693 51.4763 10.888C51.4176 10.9733 51.359 11.1013 51.3003 11.272C51.247 11.4427 51.1936 11.5867 51.1403 11.704C51.119 11.7413 51.079 11.8213 51.0203 11.944C50.967 12.0667 50.903 12.2107 50.8283 12.376C50.759 12.5413 50.6923 12.7093 50.6283 12.88C50.5643 13.0453 50.5136 13.1947 50.4763 13.328C50.423 13.456 50.4043 13.5413 50.4203 13.584C50.4363 13.6267 50.5003 13.5787 50.6123 13.44C50.7616 13.28 50.919 13.1173 51.0843 12.952C51.2496 12.7867 51.4043 12.648 51.5483 12.536C51.6976 12.4187 51.8176 12.3653 51.9083 12.376C51.9563 12.3867 52.007 12.4187 52.0603 12.472C52.119 12.5253 52.175 12.5867 52.2283 12.656C52.2816 12.7253 52.319 12.792 52.3403 12.856C52.3616 12.936 52.375 13.0053 52.3803 13.064C52.391 13.1227 52.3936 13.2107 52.3883 13.328C52.383 13.44 52.3696 13.6187 52.3483 13.864C52.3163 14.0453 52.295 14.176 52.2843 14.256C52.2736 14.3307 52.2763 14.384 52.2923 14.416C52.3136 14.448 52.3456 14.4827 52.3883 14.52C52.4683 14.584 52.5083 14.64 52.5083 14.688C52.5136 14.736 52.479 14.7813 52.4043 14.824ZM53.3091 14.712C53.2878 14.6693 53.2611 14.6373 53.2291 14.616C53.1971 14.5893 53.1811 14.5653 53.1811 14.544C53.1811 14.5227 53.1785 14.5013 53.1731 14.48C53.1731 14.4533 53.1625 14.4293 53.1411 14.408C53.1145 14.376 53.1171 14.304 53.1491 14.192C53.1811 14.0747 53.2345 13.9333 53.3091 13.768C53.3838 13.5973 53.4718 13.4187 53.5731 13.232C53.6158 13.1893 53.6585 13.1333 53.7011 13.064C53.7438 12.9947 53.7758 12.9493 53.7971 12.928C53.7971 12.9067 53.8051 12.888 53.8211 12.872C53.8371 12.8507 53.8558 12.84 53.8771 12.84V12.792C53.8771 12.7653 53.9011 12.72 53.9491 12.656C54.0025 12.592 54.0665 12.5227 54.1411 12.448C54.2158 12.368 54.2931 12.2933 54.3731 12.224C54.4531 12.1493 54.5198 12.096 54.5731 12.064C54.6851 11.9893 54.7998 11.944 54.9171 11.928C55.0398 11.912 55.1438 11.9387 55.2291 12.008C55.2451 12.024 55.2718 12.0507 55.3091 12.088C55.3465 12.1253 55.3891 12.168 55.4371 12.216C55.4905 12.2587 55.5438 12.304 55.5971 12.352L55.8931 12.616L55.7491 13.016C55.6798 13.2293 55.6611 13.416 55.6931 13.576C55.7305 13.736 55.7838 13.8747 55.8531 13.992C55.8798 14.0507 55.9331 14.1067 56.0131 14.16C56.0985 14.2133 56.1785 14.2453 56.2531 14.256C56.2958 14.2613 56.3358 14.2773 56.3731 14.304C56.4105 14.3307 56.4291 14.3733 56.4291 14.432C56.4291 14.4853 56.4185 14.528 56.3971 14.56C56.3758 14.592 56.3385 14.6133 56.2851 14.624C56.1091 14.6453 55.9438 14.6027 55.7891 14.496C55.6398 14.3893 55.5011 14.2133 55.3731 13.968C55.3518 13.936 55.3225 13.8773 55.2851 13.792C55.2531 13.7013 55.2345 13.6427 55.2291 13.616C55.2078 13.6427 55.1678 13.6933 55.1091 13.768C55.0505 13.8373 55.0051 13.888 54.9731 13.92C54.5945 14.304 54.2665 14.5627 53.9891 14.696C53.7171 14.824 53.4905 14.8293 53.3091 14.712ZM53.5971 14.264C53.5971 14.3013 53.6531 14.3013 53.7651 14.264C53.8825 14.2213 54.0078 14.1467 54.1411 14.04C54.3225 13.8853 54.5038 13.7147 54.6851 13.528C54.8718 13.3413 55.0211 13.168 55.1331 13.008L55.3091 12.72C55.2558 12.5973 55.1971 12.5147 55.1331 12.472C55.0745 12.424 55.0238 12.4 54.9811 12.4C54.9118 12.4 54.8078 12.464 54.6691 12.592C54.5358 12.72 54.3918 12.8907 54.2371 13.104C54.0825 13.3173 53.9358 13.552 53.7971 13.808C53.7438 13.9147 53.6958 14.0187 53.6531 14.12C53.6158 14.216 53.5971 14.264 53.5971 14.264ZM57.3773 14.944C57.3186 14.9333 57.2573 14.904 57.1933 14.856C57.1346 14.8027 57.0813 14.744 57.0333 14.68C56.9906 14.6107 56.9613 14.5493 56.9453 14.496C56.9453 14.4853 56.9373 14.472 56.9213 14.456C56.9106 14.44 56.9053 14.432 56.9053 14.432C56.884 14.416 56.8706 14.3467 56.8653 14.224C56.8653 14.096 56.8733 13.9547 56.8893 13.8C56.9053 13.6453 56.924 13.5227 56.9453 13.432C56.972 13.3467 57.012 13.232 57.0653 13.088C57.1186 12.9387 57.164 12.8053 57.2013 12.688L57.4173 12.224L57.0973 12.136C57.06 12.1253 57.028 12.104 57.0013 12.072C56.98 12.04 56.9693 12.0133 56.9693 11.992C56.9693 11.9493 56.9933 11.8987 57.0413 11.84C57.0893 11.776 57.124 11.744 57.1453 11.744C57.172 11.7493 57.22 11.752 57.2893 11.752C57.364 11.752 57.436 11.7493 57.5053 11.744C57.5746 11.7387 57.6173 11.7333 57.6333 11.728C57.6546 11.7173 57.676 11.704 57.6973 11.688C57.7186 11.6667 57.7346 11.6373 57.7453 11.6C57.772 11.5413 57.796 11.488 57.8173 11.44C57.8386 11.3867 57.868 11.328 57.9053 11.264C57.9426 11.1947 57.972 11.136 57.9933 11.088C58.02 11.04 58.06 10.9733 58.1133 10.888C58.14 10.8507 58.1693 10.8053 58.2013 10.752C58.2333 10.6987 58.2733 10.6533 58.3213 10.616C58.3693 10.5733 58.4173 10.5547 58.4653 10.56C58.5186 10.56 58.5853 10.5947 58.6653 10.664C58.708 10.7173 58.732 10.7573 58.7373 10.784C58.7426 10.8107 58.7213 10.8613 58.6733 10.936C58.6306 11.0267 58.58 11.1173 58.5213 11.208C58.468 11.2987 58.4173 11.3893 58.3693 11.48C58.284 11.5973 58.268 11.664 58.3213 11.68C58.3746 11.696 58.524 11.6853 58.7693 11.648C58.924 11.6213 59.036 11.6293 59.1053 11.672C59.1746 11.7093 59.2146 11.7733 59.2253 11.864C59.2413 11.992 59.228 12.0693 59.1853 12.096C59.1426 12.1227 59.02 12.136 58.8173 12.136C58.6893 12.1573 58.58 12.1707 58.4893 12.176C58.3986 12.176 58.332 12.176 58.2893 12.176C58.22 12.1813 58.1746 12.184 58.1533 12.184C58.132 12.184 58.1 12.1893 58.0573 12.2C58.0146 12.2107 57.9826 12.2293 57.9613 12.256C57.9453 12.2773 57.9266 12.3093 57.9053 12.352C57.884 12.3733 57.852 12.4293 57.8093 12.52C57.7666 12.6107 57.7133 12.7093 57.6493 12.816C57.5746 13.04 57.5106 13.264 57.4573 13.488C57.404 13.7067 57.3613 13.92 57.3293 14.128C57.308 14.2613 57.3106 14.3547 57.3373 14.408C57.364 14.456 57.4333 14.4853 57.5453 14.496C57.604 14.5013 57.6973 14.5013 57.8253 14.496C57.9586 14.4853 58.0626 14.4693 58.1373 14.448C58.196 14.4213 58.2573 14.3947 58.3213 14.368C58.3853 14.336 58.444 14.304 58.4973 14.272C58.5453 14.2453 58.5933 14.2187 58.6413 14.192C58.6893 14.16 58.7133 14.144 58.7133 14.144C58.74 14.1013 58.7693 14.088 58.8013 14.104C58.8333 14.12 58.86 14.16 58.8813 14.224C58.8813 14.288 58.868 14.3547 58.8413 14.424C58.8146 14.4933 58.716 14.576 58.5453 14.672C58.3053 14.8213 58.084 14.912 57.8813 14.944C57.684 14.9707 57.516 14.9707 57.3773 14.944Z" fill="white"/>
<path d="M0.288 15V14.136L1.84 13.944V5.512L0.432 5.352V4.488H4.656L7.264 11.528L9.712 4.488H13.76V5.352L12.624 5.48C12.6133 6.13067 12.6027 6.792 12.592 7.464C12.592 8.12533 12.592 8.78667 12.592 9.448V10.04C12.592 10.7013 12.592 11.3627 12.592 12.024C12.6027 12.6853 12.6133 13.3467 12.624 14.008L13.808 14.136V15H8.704V14.136L9.872 13.992C9.89333 13.3413 9.89867 12.7067 9.888 12.088C9.888 11.4693 9.89333 10.8987 9.904 10.376L9.936 6.84L7.088 15H5.856L2.8 6.824L2.88 10.024V13.928L4.192 14.136V15H0.288ZM14.8717 5.352V4.488H23.1438L23.2558 7.24H21.9278L21.6078 5.384H18.8238C18.8131 5.992 18.8024 6.60533 18.7918 7.224C18.7918 7.84267 18.7918 8.46667 18.7918 9.096H20.5678L20.7598 7.848H21.6878V11.448H20.7598L20.5518 10.04H18.7918C18.7918 10.7547 18.7918 11.4373 18.7918 12.088C18.8024 12.728 18.8131 13.3627 18.8238 13.992L20.2478 14.136V15H14.8717V14.136L16.0718 14.008C16.0931 13.3573 16.1038 12.7013 16.1038 12.04C16.1038 11.3787 16.1038 10.712 16.1038 10.04V9.448C16.1038 8.78667 16.1038 8.12533 16.1038 7.464C16.1038 6.792 16.0931 6.13067 16.0718 5.48L14.8717 5.352Z" fill="#F88000"/>
</svg>
