<svg width="72" height="64" viewBox="0 0 72 64" fill="none" xmlns="http://www.w3.org/2000/svg">
<g filter="url(#filter0_n_2258_68)">
<rect width="72" height="64" rx="2" fill="#1E1E1E"/>
</g>
<path d="M12.576 45V43.272L15.68 42.888V26.024L12.864 25.704V23.976H21.312L26.528 38.056L31.424 23.976H39.52V25.704L37.248 25.96C37.2267 27.2613 37.2053 28.584 37.184 29.928C37.184 31.2507 37.184 32.5733 37.184 33.896V35.08C37.184 36.4027 37.184 37.7253 37.184 39.048C37.2053 40.3707 37.2267 41.6933 37.248 43.016L39.616 43.272V45H29.408V43.272L31.744 42.984C31.7867 41.6827 31.7973 40.4133 31.776 39.176C31.776 37.9387 31.7867 36.7973 31.808 35.752L31.872 28.68L26.176 45H23.712L17.6 28.648L17.76 35.048V42.856L20.384 43.272V45H12.576ZM41.7435 25.704V23.976H58.2875L58.5115 29.48H55.8555L55.2155 25.768H49.6475C49.6262 26.984 49.6048 28.2107 49.5835 29.448C49.5835 30.6853 49.5835 31.9333 49.5835 33.192H53.1355L53.5195 30.696H55.3755V37.896H53.5195L53.1035 35.08H49.5835C49.5835 36.5093 49.5835 37.8747 49.5835 39.176C49.6048 40.456 49.6262 41.7253 49.6475 42.984L52.4955 43.272V45H41.7435V43.272L44.1435 43.016C44.1862 41.7147 44.2075 40.4027 44.2075 39.08C44.2075 37.7573 44.2075 36.424 44.2075 35.08V33.896C44.2075 32.5733 44.2075 31.2507 44.2075 29.928C44.2075 28.584 44.1862 27.2613 44.1435 25.96L41.7435 25.704Z" fill="#F88000"/>
<defs>
<filter id="filter0_n_2258_68" x="0" y="0" width="72" height="64" filterUnits="userSpaceOnUse" color-interpolation-filters="sRGB">
<feFlood flood-opacity="0" result="BackgroundImageFix"/>
<feBlend mode="normal" in="SourceGraphic" in2="BackgroundImageFix" result="shape"/>
<feTurbulence type="fractalNoise" baseFrequency="1 1" stitchTiles="stitch" numOctaves="3" result="noise" seed="2759" />
<feColorMatrix in="noise" type="luminanceToAlpha" result="alphaNoise" />
<feComponentTransfer in="alphaNoise" result="coloredNoise1">
<feFuncA type="discrete" tableValues="1 1 1 1 1 1 1 1 1 1 1 1 1 1 1 1 1 1 1 1 1 1 1 1 1 1 1 1 1 1 1 1 1 1 1 1 1 1 1 1 1 1 1 1 1 1 1 1 1 1 1 0 0 0 0 0 0 0 0 0 0 0 0 0 0 0 0 0 0 0 0 0 0 0 0 0 0 0 0 0 0 0 0 0 0 0 0 0 0 0 0 0 0 0 0 0 0 0 0 0 "/>
</feComponentTransfer>
<feComposite operator="in" in2="shape" in="coloredNoise1" result="noise1Clipped" />
<feFlood flood-color="rgba(0, 0, 0, 0.25)" result="color1Flood" />
<feComposite operator="in" in2="noise1Clipped" in="color1Flood" result="color1" />
<feMerge result="effect1_noise_2258_68">
<feMergeNode in="shape" />
<feMergeNode in="color1" />
</feMerge>
</filter>
</defs>
</svg>
