<svg width="85" height="25" viewBox="0 0 85 25" fill="none" xmlns="http://www.w3.org/2000/svg">
<path d="M40.932 23.576C40.924 23.624 40.876 23.636 40.788 23.612C40.708 23.596 40.636 23.54 40.572 23.444C40.508 23.292 40.476 23.152 40.476 23.024C40.476 22.896 40.48 22.704 40.488 22.448C40.536 22.168 40.6 21.804 40.68 21.356C40.768 20.9 40.868 20.392 40.98 19.832C41.1 19.264 41.228 18.672 41.364 18.056C41.46 17.736 41.536 17.444 41.592 17.18C41.656 16.908 41.704 16.688 41.736 16.52C41.768 16.352 41.784 16.268 41.784 16.268C41.784 16.244 41.76 16.256 41.712 16.304C41.672 16.344 41.632 16.392 41.592 16.448C41.552 16.504 41.536 16.548 41.544 16.58C41.544 16.58 41.516 16.62 41.46 16.7C41.404 16.78 41.332 16.888 41.244 17.024C41.164 17.104 41.068 17.264 40.956 17.504C40.844 17.744 40.72 17.968 40.584 18.176C40.456 18.416 40.32 18.676 40.176 18.956C40.032 19.228 39.904 19.456 39.792 19.64C39.72 19.744 39.648 19.864 39.576 20C39.504 20.136 39.46 20.224 39.444 20.264C39.412 20.352 39.356 20.46 39.276 20.588C39.196 20.708 39.108 20.828 39.012 20.948C38.964 21.02 38.916 21.096 38.868 21.176C38.82 21.248 38.78 21.312 38.748 21.368C38.724 21.416 38.712 21.44 38.712 21.44C38.712 21.464 38.672 21.536 38.592 21.656C38.52 21.776 38.428 21.908 38.316 22.052C38.212 22.196 38.112 22.32 38.016 22.424C37.736 22.72 37.512 22.896 37.344 22.952C37.176 23 36.988 22.928 36.78 22.736C36.676 22.608 36.6 22.464 36.552 22.304C36.504 22.136 36.484 21.932 36.492 21.692C36.5 21.444 36.528 21.136 36.576 20.768C36.632 20.488 36.684 20.208 36.732 19.928C36.78 19.64 36.824 19.372 36.864 19.124C36.912 18.868 36.952 18.652 36.984 18.476C37.024 18.3 37.056 18.184 37.08 18.128C37.096 17.968 37.092 17.88 37.068 17.864C37.044 17.848 36.996 17.896 36.924 18.008C36.892 18.064 36.808 18.204 36.672 18.428C36.536 18.644 36.376 18.912 36.192 19.232C36.016 19.552 35.84 19.9 35.664 20.276C35.336 20.884 35.064 21.388 34.848 21.788C34.64 22.18 34.472 22.492 34.344 22.724C34.224 22.956 34.136 23.128 34.08 23.24C34.024 23.352 33.984 23.428 33.96 23.468C33.936 23.508 33.916 23.536 33.9 23.552C33.828 23.552 33.752 23.52 33.672 23.456C33.6 23.4 33.524 23.332 33.444 23.252C33.42 23.196 33.408 23.14 33.408 23.084C33.416 23.028 33.444 22.948 33.492 22.844C33.54 22.732 33.612 22.564 33.708 22.34C33.812 22.132 33.908 21.952 33.996 21.8C34.084 21.64 34.152 21.544 34.2 21.512C34.24 21.448 34.276 21.384 34.308 21.32C34.34 21.256 34.36 21.18 34.368 21.092C34.408 21.044 34.468 20.948 34.548 20.804C34.636 20.652 34.724 20.488 34.812 20.312C34.876 20.208 34.956 20.072 35.052 19.904C35.156 19.736 35.264 19.552 35.376 19.352C35.488 19.144 35.588 18.948 35.676 18.764C36.044 18.132 36.356 17.6 36.612 17.168C36.868 16.728 37.06 16.448 37.188 16.328C37.228 16.288 37.268 16.232 37.308 16.16C37.356 16.088 37.38 16.024 37.38 15.968C37.38 15.8 37.412 15.648 37.476 15.512C37.548 15.368 37.62 15.304 37.692 15.32C37.772 15.32 37.844 15.328 37.908 15.344C37.972 15.36 38.04 15.412 38.112 15.5C38.176 15.596 38.232 15.692 38.28 15.788C38.328 15.884 38.324 16.076 38.268 16.364C38.268 16.476 38.256 16.604 38.232 16.748C38.208 16.884 38.184 17.012 38.16 17.132C38.144 17.244 38.132 17.332 38.124 17.396C38.02 17.708 37.924 18.06 37.836 18.452C37.748 18.836 37.668 19.228 37.596 19.628C37.524 20.02 37.464 20.388 37.416 20.732C37.368 21.068 37.336 21.348 37.32 21.572C37.312 21.788 37.32 21.912 37.344 21.944C37.4 21.976 37.448 21.98 37.488 21.956C37.528 21.932 37.596 21.828 37.692 21.644C37.748 21.548 37.824 21.432 37.92 21.296C38.024 21.152 38.124 21.02 38.22 20.9C38.284 20.788 38.384 20.62 38.52 20.396C38.656 20.172 38.828 19.884 39.036 19.532C39.252 19.18 39.508 18.752 39.804 18.248C40.108 17.736 40.452 17.144 40.836 16.472C41.02 16.192 41.192 15.92 41.352 15.656C41.52 15.384 41.656 15.208 41.76 15.128C41.872 15.024 41.988 15 42.108 15.056C42.228 15.104 42.332 15.208 42.42 15.368C42.516 15.528 42.568 15.728 42.576 15.968C42.584 16.08 42.568 16.26 42.528 16.508C42.496 16.756 42.444 17.04 42.372 17.36C42.3 17.672 42.208 17.996 42.096 18.332C42.072 18.468 42.032 18.64 41.976 18.848C41.928 19.048 41.872 19.256 41.808 19.472C41.744 19.688 41.68 19.892 41.616 20.084C41.576 20.348 41.528 20.608 41.472 20.864C41.424 21.12 41.408 21.292 41.424 21.38C41.352 21.508 41.304 21.692 41.28 21.932C41.256 22.172 41.244 22.42 41.244 22.676C41.212 22.988 41.188 23.208 41.172 23.336C41.156 23.464 41.128 23.524 41.088 23.516C40.984 23.484 40.932 23.504 40.932 23.576ZM43.0859 22.616C43.0219 22.552 42.9739 22.472 42.9419 22.376C42.9179 22.28 42.9099 22.184 42.9179 22.088C42.9259 21.992 42.9459 21.912 42.9779 21.848C42.9779 21.784 42.9859 21.736 43.0019 21.704C43.0259 21.664 43.0339 21.628 43.0259 21.596C43.0179 21.564 43.0259 21.508 43.0499 21.428C43.0739 21.348 43.0979 21.272 43.1219 21.2C43.1779 21.072 43.2379 20.92 43.3019 20.744C43.3659 20.56 43.4259 20.38 43.4819 20.204C43.5379 20.028 43.5859 19.876 43.6259 19.748C43.6659 19.62 43.6899 19.54 43.6979 19.508C43.6979 19.412 43.7619 19.36 43.8899 19.352C43.9859 19.32 44.0579 19.32 44.1059 19.352C44.1539 19.376 44.2179 19.452 44.2979 19.58C44.3619 19.644 44.3859 19.74 44.3699 19.868C44.3539 19.996 44.3019 20.156 44.2139 20.348C44.1819 20.412 44.1419 20.504 44.0939 20.624C44.0539 20.744 44.0259 20.852 44.0099 20.948C43.9779 21.012 43.9379 21.104 43.8899 21.224C43.8499 21.336 43.8139 21.444 43.7819 21.548C43.7659 21.588 43.7499 21.648 43.7339 21.728C43.7179 21.8 43.6979 21.88 43.6739 21.968C43.6499 22.048 43.6179 22.12 43.5779 22.184C43.5059 22.512 43.4379 22.704 43.3739 22.76C43.3179 22.816 43.2219 22.768 43.0859 22.616ZM44.2499 17.744C44.2099 17.704 44.1739 17.648 44.1419 17.576C44.1099 17.496 44.0899 17.424 44.0819 17.36C44.0739 17.288 44.0819 17.252 44.1059 17.252C44.1699 17.244 44.2459 17.176 44.3339 17.048C44.4219 16.92 44.4579 16.808 44.4419 16.712C44.4419 16.68 44.4539 16.652 44.4779 16.628C44.5019 16.596 44.5299 16.576 44.5619 16.568C44.6579 16.504 44.7499 16.496 44.8379 16.544C44.9339 16.584 45.0219 16.668 45.1019 16.796C45.1739 16.948 45.1939 17.076 45.1619 17.18C45.1299 17.276 45.0419 17.412 44.8979 17.588C44.7779 17.748 44.6659 17.836 44.5619 17.852C44.4659 17.868 44.3619 17.832 44.2499 17.744ZM49.4402 22.448C49.2802 22.448 49.1482 22.416 49.0442 22.352C48.9402 22.28 48.8522 22.164 48.7802 22.004C48.7482 21.892 48.7202 21.768 48.6962 21.632C48.6802 21.488 48.6722 21.356 48.6722 21.236C48.6722 21.108 48.6842 21.024 48.7082 20.984C48.7402 20.952 48.7522 20.896 48.7442 20.816C48.7442 20.728 48.7442 20.636 48.7442 20.54C48.7362 20.38 48.6962 20.292 48.6242 20.276C48.5602 20.252 48.4642 20.276 48.3362 20.348C48.1922 20.436 48.0042 20.556 47.7722 20.708C47.5402 20.852 47.2962 21.012 47.0402 21.188C46.7922 21.364 46.5562 21.548 46.3322 21.74C46.1562 21.932 46.0482 22.08 46.0082 22.184C45.9762 22.28 45.9282 22.328 45.8642 22.328C45.8002 22.36 45.7442 22.364 45.6962 22.34C45.6562 22.308 45.5962 22.26 45.5162 22.196C45.4602 22.132 45.4042 22.072 45.3482 22.016C45.2922 21.952 45.2562 21.904 45.2402 21.872C45.2402 21.832 45.2522 21.748 45.2762 21.62C45.3002 21.492 45.3282 21.364 45.3602 21.236C45.4002 21.108 45.4282 21.024 45.4442 20.984C45.4842 20.984 45.5162 20.944 45.5402 20.864C45.5722 20.784 45.6202 20.696 45.6842 20.6C45.7002 20.504 45.7402 20.376 45.8042 20.216C45.8762 20.048 45.9402 19.9 45.9962 19.772C46.1082 19.58 46.1842 19.42 46.2242 19.292C46.2722 19.164 46.3042 19.004 46.3202 18.812C46.3122 18.78 46.3202 18.752 46.3442 18.728C46.3682 18.696 46.3962 18.68 46.4282 18.68C46.4922 18.616 46.5682 18.6 46.6562 18.632C46.7442 18.656 46.8242 18.716 46.8962 18.812C47.0402 19.004 47.0962 19.204 47.0642 19.412C47.0402 19.612 46.9122 19.9 46.6802 20.276C46.6242 20.404 46.5802 20.504 46.5482 20.576C46.5242 20.64 46.5122 20.692 46.5122 20.732C46.5122 20.732 46.5522 20.704 46.6322 20.648C46.7202 20.592 46.8162 20.528 46.9202 20.456C47.0322 20.376 47.1202 20.316 47.1842 20.276C47.2242 20.236 47.3162 20.164 47.4602 20.06C47.6042 19.956 47.7562 19.856 47.9162 19.76C48.0842 19.656 48.2082 19.596 48.2882 19.58C48.3522 19.548 48.4202 19.52 48.4922 19.496C48.5642 19.464 48.6162 19.448 48.6482 19.448C48.7122 19.448 48.7922 19.484 48.8882 19.556C48.9922 19.62 49.0882 19.7 49.1762 19.796C49.2642 19.884 49.3162 19.96 49.3322 20.024C49.3322 20.056 49.3322 20.088 49.3322 20.12C49.3402 20.152 49.3482 20.184 49.3562 20.216C49.3882 20.32 49.4042 20.46 49.4042 20.636C49.4122 20.812 49.4082 20.972 49.3922 21.116C49.3762 21.26 49.3482 21.344 49.3082 21.368C49.3082 21.368 49.3082 21.38 49.3082 21.404C49.3162 21.42 49.3362 21.428 49.3682 21.428C49.3682 21.46 49.3682 21.48 49.3682 21.488C49.3282 21.488 49.3122 21.524 49.3202 21.596C49.3282 21.66 49.3522 21.732 49.3922 21.812C49.4402 21.892 49.4882 21.956 49.5362 22.004C49.6322 22.1 49.6722 22.192 49.6562 22.28C49.6402 22.36 49.5682 22.416 49.4402 22.448ZM51.6145 22.652C51.5505 22.668 51.4665 22.676 51.3625 22.676C51.2585 22.668 51.1665 22.656 51.0865 22.64C51.0145 22.616 50.9785 22.592 50.9785 22.568C50.9785 22.528 50.9585 22.508 50.9185 22.508C50.9185 22.508 50.8985 22.492 50.8585 22.46C50.8265 22.428 50.7745 22.396 50.7025 22.364C50.6305 22.252 50.5945 22.132 50.5945 22.004C50.5945 21.868 50.6305 21.656 50.7025 21.368C50.7265 21.168 50.8025 20.936 50.9305 20.672C51.0665 20.4 51.2305 20.124 51.4225 19.844C51.6145 19.564 51.8145 19.312 52.0225 19.088C52.2385 18.864 52.4345 18.7 52.6105 18.596C52.7225 18.484 52.8585 18.424 53.0185 18.416C53.1785 18.408 53.3305 18.444 53.4745 18.524C53.5545 18.564 53.6345 18.628 53.7145 18.716C53.7945 18.804 53.8705 18.9 53.9425 19.004C54.0145 19.108 54.0745 19.212 54.1225 19.316C54.1465 19.404 54.1585 19.484 54.1585 19.556C54.1665 19.62 54.1665 19.7 54.1585 19.796C54.1585 19.892 54.1465 20.036 54.1225 20.228C54.0825 20.372 54.0465 20.548 54.0145 20.756C53.9905 20.964 53.9785 21.144 53.9785 21.296C53.9625 21.448 53.9785 21.556 54.0265 21.62C54.0825 21.684 54.1625 21.688 54.2665 21.632C54.3625 21.584 54.4545 21.564 54.5425 21.572C54.6305 21.572 54.6985 21.596 54.7465 21.644C54.8025 21.692 54.8305 21.764 54.8305 21.86C54.8305 21.956 54.7825 22.056 54.6865 22.16C54.5985 22.256 54.4865 22.34 54.3505 22.412C54.2225 22.476 54.0985 22.508 53.9785 22.508C53.8905 22.508 53.8065 22.456 53.7265 22.352C53.6465 22.24 53.5745 22.108 53.5105 21.956C53.4545 21.796 53.4025 21.644 53.3545 21.5L53.2825 21.224L52.7665 21.716C52.6625 21.828 52.5585 21.932 52.4545 22.028C52.3585 22.116 52.2985 22.18 52.2745 22.22C52.2345 22.292 52.1585 22.364 52.0465 22.436C51.9425 22.508 51.7985 22.58 51.6145 22.652ZM51.6505 21.944C51.7865 21.864 51.9425 21.748 52.1185 21.596C52.2945 21.436 52.4665 21.264 52.6345 21.08C52.8025 20.888 52.9425 20.712 53.0545 20.552C53.1905 20.368 53.2945 20.196 53.3665 20.036C53.4385 19.876 53.4905 19.724 53.5225 19.58C53.4905 19.492 53.4385 19.4 53.3665 19.304C53.2945 19.2 53.2305 19.144 53.1745 19.136C52.9985 19.136 52.8105 19.248 52.6105 19.472C52.4185 19.688 52.2305 19.924 52.0465 20.18C52.0145 20.22 51.9705 20.284 51.9145 20.372C51.8585 20.46 51.8025 20.544 51.7465 20.624C51.6985 20.696 51.6665 20.744 51.6505 20.768C51.6265 20.8 51.5785 20.892 51.5065 21.044C51.4425 21.188 51.3785 21.336 51.3145 21.488C51.2505 21.632 51.2185 21.728 51.2185 21.776C51.2185 21.824 51.2225 21.876 51.2305 21.932C51.2465 21.988 51.2865 22.024 51.3505 22.04C51.4145 22.056 51.5145 22.024 51.6505 21.944ZM55.9869 22.976L56.0829 22.412C56.1389 22.052 56.1949 21.716 56.2509 21.404C56.3069 21.092 56.3589 20.84 56.4069 20.648C56.4629 20.456 56.4989 20.36 56.5149 20.36C56.5469 20.344 56.5629 20.312 56.5629 20.264C56.5629 20.208 56.5669 20.14 56.5749 20.06L56.5989 19.76L56.4189 19.784C56.3229 19.768 56.2669 19.748 56.2509 19.724C56.2349 19.7 56.2269 19.628 56.2269 19.508C56.2349 19.428 56.2469 19.372 56.2629 19.34C56.2789 19.3 56.3229 19.276 56.3949 19.268C56.5229 19.228 56.6549 19.156 56.7909 19.052C56.9349 18.94 57.0029 18.844 56.9949 18.764C57.0029 18.7 57.0309 18.572 57.0789 18.38C57.1349 18.18 57.2069 17.96 57.2949 17.72C57.3829 17.472 57.4789 17.248 57.5829 17.048C57.6149 16.944 57.6429 16.84 57.6669 16.736C57.6989 16.624 57.7149 16.54 57.7149 16.484C57.7309 16.42 57.7509 16.348 57.7749 16.268C57.7989 16.188 57.8109 16.132 57.8109 16.1C57.8589 16.012 57.8669 15.964 57.8349 15.956C57.8029 15.94 57.7269 15.94 57.6069 15.956C57.6069 15.956 57.5709 15.964 57.4989 15.98C57.4269 15.988 57.3469 15.988 57.2589 15.98C57.1309 16.012 57.0429 16.024 56.9949 16.016C56.9469 16.008 56.9069 15.972 56.8749 15.908C56.8029 15.836 56.7709 15.76 56.7789 15.68C56.7949 15.6 56.8389 15.564 56.9109 15.572C56.9509 15.58 56.9829 15.576 57.0069 15.56C57.0389 15.536 57.0709 15.508 57.1029 15.476C57.1349 15.444 57.2109 15.408 57.3309 15.368C57.4509 15.32 57.5989 15.292 57.7749 15.284C57.8549 15.276 57.9509 15.26 58.0629 15.236C58.1829 15.204 58.2909 15.168 58.3869 15.128C58.4829 15.088 58.5389 15.06 58.5549 15.044C58.5549 15.004 58.5749 14.984 58.6149 14.984C58.6629 14.984 58.7029 14.984 58.7349 14.984C58.7669 14.976 58.8269 14.968 58.9149 14.96C59.0109 14.944 59.0709 14.94 59.0949 14.948C59.1589 14.916 59.2989 14.892 59.5149 14.876C59.7309 14.852 60.0589 14.844 60.4989 14.852C60.6269 14.86 60.7349 14.868 60.8229 14.876C60.9109 14.876 60.9549 14.86 60.9549 14.828C60.9549 14.828 61.0069 14.836 61.1109 14.852C61.2149 14.86 61.3309 14.884 61.4589 14.924C61.6509 14.932 61.8029 14.96 61.9149 15.008C62.0269 15.048 62.1069 15.112 62.1549 15.2C62.2109 15.288 62.2389 15.408 62.2389 15.56L62.2869 15.836L61.9629 15.728C61.8989 15.72 61.7869 15.708 61.6269 15.692C61.4669 15.668 61.2909 15.648 61.0989 15.632C60.9149 15.616 60.7389 15.604 60.5709 15.596C60.4029 15.58 60.2829 15.58 60.2109 15.596C60.1309 15.596 60.0469 15.604 59.9589 15.62C59.8709 15.628 59.7829 15.628 59.6949 15.62C59.5829 15.652 59.4749 15.668 59.3709 15.668C59.2749 15.668 59.2109 15.664 59.1789 15.656C59.0989 15.688 59.0269 15.704 58.9629 15.704C58.9069 15.704 58.8549 15.724 58.8069 15.764C58.8069 15.764 58.7829 15.776 58.7349 15.8C58.6949 15.824 58.6589 15.836 58.6269 15.836C58.5949 15.828 58.5789 15.844 58.5789 15.884C58.5789 15.924 58.5709 16.004 58.5549 16.124C58.5629 16.236 58.5589 16.336 58.5429 16.424C58.5269 16.512 58.4949 16.624 58.4469 16.76C58.3989 16.896 58.3229 17.096 58.2189 17.36C58.1709 17.496 58.1149 17.648 58.0509 17.816C57.9869 17.976 57.9469 18.1 57.9309 18.188C57.8429 18.428 57.7589 18.612 57.6789 18.74C57.6949 18.82 57.7069 18.864 57.7149 18.872C57.7309 18.872 57.7669 18.848 57.8229 18.8C57.8869 18.824 57.9389 18.824 57.9789 18.8C58.0269 18.776 58.0669 18.76 58.0989 18.752C58.1309 18.752 58.1629 18.752 58.1949 18.752C58.2349 18.752 58.2829 18.76 58.3389 18.776C58.3309 18.744 58.3629 18.728 58.4349 18.728C58.5069 18.72 58.5869 18.712 58.6749 18.704C58.7629 18.664 58.8709 18.636 58.9989 18.62C59.1349 18.596 59.2309 18.568 59.2869 18.536C59.3749 18.496 59.4349 18.476 59.4669 18.476C59.5069 18.476 59.5789 18.5 59.6829 18.548C59.7389 18.62 59.7789 18.708 59.8029 18.812C59.8269 18.908 59.8349 19 59.8269 19.088C59.8189 19.168 59.7949 19.224 59.7549 19.256C59.7549 19.256 59.7149 19.272 59.6349 19.304C59.5549 19.328 59.4709 19.356 59.3829 19.388C59.2949 19.372 59.2109 19.372 59.1309 19.388C59.0509 19.404 58.9949 19.42 58.9629 19.436C58.7949 19.54 58.5189 19.576 58.1349 19.544C58.0789 19.584 58.0109 19.604 57.9309 19.604C57.8589 19.604 57.8029 19.62 57.7629 19.652C57.7389 19.652 57.6909 19.66 57.6189 19.676C57.5549 19.684 57.5069 19.684 57.4749 19.676C57.4429 19.676 57.4229 19.7 57.4149 19.748C57.4069 19.788 57.4029 19.824 57.4029 19.856C57.4029 19.888 57.3909 19.92 57.3669 19.952C57.3429 19.984 57.3309 20 57.3309 20C57.2829 20.048 57.2549 20.1 57.2469 20.156C57.2469 20.156 57.2429 20.204 57.2349 20.3C57.2349 20.396 57.2149 20.5 57.1749 20.612C57.1109 20.82 57.0509 21.032 56.9949 21.248C56.9389 21.464 56.8989 21.652 56.8749 21.812C56.8509 21.964 56.8469 22.056 56.8629 22.088C56.8949 22.12 56.9269 22.148 56.9589 22.172C56.9909 22.196 57.0269 22.212 57.0669 22.22C57.1069 22.188 57.1429 22.2 57.1749 22.256C57.2149 22.312 57.2389 22.384 57.2469 22.472C57.2389 22.504 57.2029 22.568 57.1389 22.664C57.0749 22.752 56.9989 22.852 56.9109 22.964C56.8069 23.212 56.6949 23.348 56.5749 23.372C56.4629 23.396 56.3269 23.336 56.1669 23.192L55.9869 22.976ZM61.3815 22.604C61.2855 22.62 61.1815 22.604 61.0695 22.556C60.9575 22.508 60.8575 22.44 60.7695 22.352C60.6895 22.264 60.6375 22.172 60.6135 22.076C60.5815 21.908 60.6015 21.7 60.6735 21.452C60.7535 21.196 60.8655 20.928 61.0095 20.648C61.1615 20.36 61.3295 20.084 61.5135 19.82C61.7055 19.556 61.9015 19.328 62.1015 19.136C62.3095 18.936 62.5015 18.8 62.6775 18.728C62.7655 18.672 62.8335 18.636 62.8815 18.62C62.9375 18.596 62.9935 18.592 63.0495 18.608C63.1135 18.624 63.2055 18.664 63.3255 18.728C63.4375 18.76 63.5215 18.796 63.5775 18.836C63.6335 18.876 63.7055 18.956 63.7935 19.076C63.8575 19.196 63.9055 19.316 63.9375 19.436C63.9695 19.556 63.9975 19.692 64.0215 19.844C64.0855 20.044 64.1095 20.176 64.0935 20.24C64.0775 20.296 64.0535 20.34 64.0215 20.372C63.9575 20.452 63.9415 20.492 63.9735 20.492C63.9735 20.492 63.9695 20.508 63.9615 20.54C63.9615 20.564 63.9455 20.604 63.9135 20.66C63.8575 20.836 63.8135 21.02 63.7815 21.212C63.7575 21.396 63.7615 21.548 63.7935 21.668C63.8575 21.844 63.9735 21.948 64.1415 21.98C64.3095 22.012 64.4815 21.94 64.6575 21.764C64.7455 21.7 64.8295 21.644 64.9095 21.596C64.9895 21.54 65.0295 21.544 65.0295 21.608C65.0295 21.608 65.0415 21.62 65.0655 21.644C65.0895 21.66 65.1175 21.668 65.1495 21.668C65.1895 21.668 65.2135 21.684 65.2215 21.716C65.2375 21.748 65.2375 21.792 65.2215 21.848C65.2135 21.896 65.1895 21.952 65.1495 22.016C65.0295 22.136 64.9695 22.216 64.9695 22.256C64.9695 22.256 64.9535 22.272 64.9215 22.304C64.8975 22.328 64.8535 22.368 64.7895 22.424C64.6455 22.512 64.4615 22.556 64.2375 22.556C64.0215 22.556 63.8535 22.512 63.7335 22.424C63.6135 22.336 63.5015 22.216 63.3975 22.064C63.3015 21.912 63.2375 21.78 63.2055 21.668L63.1455 21.548L62.7975 21.776C62.7095 21.864 62.6135 21.948 62.5095 22.028C62.4135 22.108 62.3495 22.164 62.3175 22.196C62.2935 22.228 62.2655 22.256 62.2335 22.28C62.2095 22.304 62.1815 22.316 62.1495 22.316C62.1175 22.316 62.0895 22.316 62.0655 22.316C62.0415 22.316 62.0295 22.316 62.0295 22.316C62.0295 22.348 61.9895 22.388 61.9095 22.436C61.8375 22.484 61.7495 22.524 61.6455 22.556C61.5495 22.588 61.4615 22.604 61.3815 22.604ZM61.2615 21.956C61.3095 21.956 61.3935 21.92 61.5135 21.848C61.6415 21.768 61.7815 21.676 61.9335 21.572C62.0935 21.468 62.2335 21.364 62.3535 21.26C62.4815 21.156 62.5695 21.076 62.6175 21.02C62.6495 20.988 62.7015 20.936 62.7735 20.864C62.8455 20.784 62.9095 20.716 62.9655 20.66C63.1495 20.452 63.2775 20.224 63.3495 19.976C63.4215 19.72 63.4135 19.52 63.3255 19.376C63.2935 19.288 63.2535 19.24 63.2055 19.232C63.1575 19.224 63.0575 19.252 62.9055 19.316C62.8095 19.372 62.6895 19.48 62.5455 19.64C62.4095 19.792 62.2615 19.972 62.1015 20.18C61.9495 20.38 61.8055 20.588 61.6695 20.804C61.5335 21.02 61.4215 21.22 61.3335 21.404C61.2455 21.588 61.2015 21.732 61.2015 21.836C61.2015 21.868 61.2095 21.896 61.2255 21.92C61.2495 21.944 61.2615 21.956 61.2615 21.956ZM66.2914 22.628C66.2674 22.636 66.2274 22.632 66.1714 22.616C66.1154 22.6 66.0594 22.58 66.0034 22.556C65.9474 22.532 65.9114 22.512 65.8954 22.496C65.8634 22.464 65.8314 22.416 65.7994 22.352C65.7754 22.288 65.7754 22.196 65.7994 22.076C65.8234 21.948 65.9034 21.784 66.0394 21.584C66.0794 21.504 66.1274 21.384 66.1834 21.224C66.2394 21.064 66.2954 20.896 66.3514 20.72C66.4154 20.536 66.4714 20.372 66.5194 20.228C66.5754 20.084 66.6154 19.984 66.6394 19.928C66.6554 19.792 66.6474 19.696 66.6154 19.64C66.5914 19.576 66.5234 19.54 66.4114 19.532C66.3314 19.532 66.2674 19.524 66.2194 19.508C66.1794 19.492 66.1594 19.412 66.1594 19.268C66.1754 19.156 66.2034 19.08 66.2434 19.04C66.2914 18.992 66.3554 18.94 66.4354 18.884C66.5154 18.844 66.5954 18.816 66.6754 18.8C66.7634 18.784 66.8474 18.78 66.9274 18.788C67.0074 18.796 67.0714 18.824 67.1194 18.872C67.1754 18.904 67.2114 18.976 67.2274 19.088C67.2434 19.192 67.2514 19.3 67.2514 19.412C67.2594 19.524 67.2674 19.608 67.2754 19.664C67.3554 19.6 67.4634 19.512 67.5994 19.4C67.7434 19.28 67.8674 19.168 67.9714 19.064C68.0994 18.976 68.2514 18.888 68.4274 18.8C68.6034 18.704 68.7314 18.656 68.8114 18.656C68.8994 18.656 68.9874 18.68 69.0754 18.728C69.1634 18.768 69.2234 18.82 69.2554 18.884C69.3354 19.02 69.3714 19.14 69.3634 19.244C69.3634 19.348 69.3194 19.456 69.2314 19.568C69.1514 19.672 69.0514 19.744 68.9314 19.784C68.8194 19.824 68.7474 19.844 68.7154 19.844C68.6674 19.844 68.6074 19.808 68.5354 19.736C68.4634 19.664 68.4234 19.604 68.4154 19.556C68.4154 19.532 68.3634 19.556 68.2594 19.628C68.1634 19.692 68.0554 19.776 67.9354 19.88C67.8154 19.976 67.7154 20.064 67.6354 20.144C67.4994 20.312 67.3554 20.54 67.2034 20.828C67.0514 21.116 66.8714 21.464 66.6634 21.872C66.5674 22.072 66.4994 22.244 66.4594 22.388C66.4194 22.524 66.3634 22.604 66.2914 22.628ZM74.0596 22.736C73.9076 22.776 73.7956 22.792 73.7236 22.784C73.6516 22.768 73.5556 22.7 73.4356 22.58C73.3636 22.468 73.2996 22.368 73.2436 22.28C73.1876 22.192 73.1516 22.036 73.1356 21.812C73.1276 21.66 73.1356 21.496 73.1596 21.32C73.1916 21.136 73.2036 21.004 73.1956 20.924C73.2596 20.628 73.2836 20.392 73.2676 20.216C73.2596 20.032 73.2356 19.94 73.1956 19.94C73.1076 19.924 72.9476 20.012 72.7156 20.204C72.4916 20.388 72.2316 20.632 71.9356 20.936C71.6476 21.232 71.3596 21.544 71.0716 21.872C70.9196 22.08 70.8116 22.236 70.7476 22.34C70.6836 22.436 70.6356 22.484 70.6036 22.484C70.5476 22.484 70.4716 22.464 70.3756 22.424C70.2796 22.384 70.1956 22.336 70.1236 22.28C70.0516 22.216 70.0116 22.16 70.0036 22.112C70.0036 22.08 70.0236 21.996 70.0636 21.86C70.1036 21.716 70.1516 21.552 70.2076 21.368C70.2716 21.184 70.3276 21.012 70.3756 20.852C70.4236 20.692 70.4596 20.58 70.4836 20.516C70.5556 20.308 70.6396 20.056 70.7356 19.76C70.8396 19.456 70.9316 19.188 71.0116 18.956C71.0436 18.852 71.0996 18.704 71.1796 18.512C71.2596 18.312 71.3396 18.112 71.4196 17.912C71.4996 17.712 71.5556 17.564 71.5876 17.468C71.6116 17.404 71.6556 17.292 71.7196 17.132C71.7836 16.964 71.8516 16.78 71.9236 16.58C72.0036 16.38 72.0756 16.196 72.1396 16.028C72.2116 15.852 72.2596 15.724 72.2836 15.644C72.2756 15.572 72.2796 15.508 72.2956 15.452C72.3196 15.388 72.3436 15.34 72.3676 15.308C72.3996 15.308 72.4356 15.308 72.4756 15.308C72.5156 15.3 72.5356 15.296 72.5356 15.296C72.5356 15.28 72.5676 15.296 72.6316 15.344C72.6956 15.392 72.7556 15.452 72.8116 15.524C72.8756 15.588 72.9076 15.644 72.9076 15.692C72.9476 15.796 72.9516 15.932 72.9196 16.1C72.8876 16.26 72.8036 16.504 72.6676 16.832C72.5796 16.96 72.4916 17.152 72.4036 17.408C72.3236 17.664 72.2436 17.88 72.1636 18.056C72.1316 18.112 72.0716 18.232 71.9836 18.416C71.9036 18.6 71.8076 18.816 71.6956 19.064C71.5916 19.312 71.4916 19.564 71.3956 19.82C71.2996 20.068 71.2236 20.292 71.1676 20.492C71.0876 20.684 71.0596 20.812 71.0836 20.876C71.1076 20.94 71.2036 20.868 71.3716 20.66C71.5956 20.42 71.8316 20.176 72.0796 19.928C72.3276 19.68 72.5596 19.472 72.7756 19.304C72.9996 19.128 73.1796 19.048 73.3156 19.064C73.3876 19.08 73.4636 19.128 73.5436 19.208C73.6316 19.288 73.7156 19.38 73.7956 19.484C73.8756 19.588 73.9316 19.688 73.9636 19.784C73.9956 19.904 74.0156 20.008 74.0236 20.096C74.0396 20.184 74.0436 20.316 74.0356 20.492C74.0276 20.66 74.0076 20.928 73.9756 21.296C73.9276 21.568 73.8956 21.764 73.8796 21.884C73.8636 21.996 73.8676 22.076 73.8916 22.124C73.9236 22.172 73.9716 22.224 74.0356 22.28C74.1556 22.376 74.2156 22.46 74.2156 22.532C74.2236 22.604 74.1716 22.672 74.0596 22.736ZM75.4168 22.568C75.3848 22.504 75.3448 22.456 75.2968 22.424C75.2488 22.384 75.2248 22.348 75.2248 22.316C75.2248 22.284 75.2208 22.252 75.2128 22.22C75.2128 22.18 75.1968 22.144 75.1648 22.112C75.1248 22.064 75.1288 21.956 75.1768 21.788C75.2248 21.612 75.3048 21.4 75.4168 21.152C75.5288 20.896 75.6608 20.628 75.8128 20.348C75.8768 20.284 75.9408 20.2 76.0048 20.096C76.0688 19.992 76.1168 19.924 76.1488 19.892C76.1488 19.86 76.1608 19.832 76.1848 19.808C76.2088 19.776 76.2368 19.76 76.2688 19.76V19.688C76.2688 19.648 76.3048 19.58 76.3768 19.484C76.4568 19.388 76.5528 19.284 76.6648 19.172C76.7768 19.052 76.8928 18.94 77.0128 18.836C77.1328 18.724 77.2328 18.644 77.3128 18.596C77.4808 18.484 77.6528 18.416 77.8288 18.392C78.0128 18.368 78.1688 18.408 78.2968 18.512C78.3208 18.536 78.3608 18.576 78.4168 18.632C78.4728 18.688 78.5368 18.752 78.6088 18.824C78.6888 18.888 78.7688 18.956 78.8488 19.028L79.2928 19.424L79.0768 20.024C78.9728 20.344 78.9448 20.624 78.9928 20.864C79.0488 21.104 79.1288 21.312 79.2328 21.488C79.2728 21.576 79.3528 21.66 79.4728 21.74C79.6008 21.82 79.7208 21.868 79.8328 21.884C79.8968 21.892 79.9568 21.916 80.0128 21.956C80.0688 21.996 80.0968 22.06 80.0968 22.148C80.0968 22.228 80.0808 22.292 80.0488 22.34C80.0168 22.388 79.9608 22.42 79.8808 22.436C79.6168 22.468 79.3688 22.404 79.1368 22.244C78.9128 22.084 78.7048 21.82 78.5128 21.452C78.4808 21.404 78.4368 21.316 78.3808 21.188C78.3328 21.052 78.3048 20.964 78.2968 20.924C78.2648 20.964 78.2048 21.04 78.1168 21.152C78.0288 21.256 77.9608 21.332 77.9128 21.38C77.3448 21.956 76.8528 22.344 76.4368 22.544C76.0288 22.736 75.6888 22.744 75.4168 22.568ZM75.8488 21.896C75.8488 21.952 75.9328 21.952 76.1008 21.896C76.2768 21.832 76.4648 21.72 76.6648 21.56C76.9368 21.328 77.2088 21.072 77.4808 20.792C77.7608 20.512 77.9848 20.252 78.1528 20.012L78.4168 19.58C78.3368 19.396 78.2488 19.272 78.1528 19.208C78.0648 19.136 77.9888 19.1 77.9248 19.1C77.8208 19.1 77.6648 19.196 77.4568 19.388C77.2568 19.58 77.0408 19.836 76.8088 20.156C76.5768 20.476 76.3568 20.828 76.1488 21.212C76.0688 21.372 75.9968 21.528 75.9328 21.68C75.8768 21.824 75.8488 21.896 75.8488 21.896ZM81.5191 22.916C81.4311 22.9 81.3391 22.856 81.2431 22.784C81.1551 22.704 81.0751 22.616 81.0031 22.52C80.9391 22.416 80.8951 22.324 80.8711 22.244C80.8711 22.228 80.8591 22.208 80.8351 22.184C80.8191 22.16 80.8111 22.148 80.8111 22.148C80.7791 22.124 80.7591 22.02 80.7511 21.836C80.7511 21.644 80.7631 21.432 80.7871 21.2C80.8111 20.968 80.8391 20.784 80.8711 20.648C80.9111 20.52 80.9711 20.348 81.0511 20.132C81.1311 19.908 81.1991 19.708 81.2551 19.532L81.5791 18.836L81.0991 18.704C81.0431 18.688 80.9951 18.656 80.9551 18.608C80.9231 18.56 80.9071 18.52 80.9071 18.488C80.9071 18.424 80.9431 18.348 81.0151 18.26C81.0871 18.164 81.1391 18.116 81.1711 18.116C81.2111 18.124 81.2831 18.128 81.3871 18.128C81.4991 18.128 81.6071 18.124 81.7111 18.116C81.8151 18.108 81.8791 18.1 81.9031 18.092C81.9351 18.076 81.9671 18.056 81.9991 18.032C82.0311 18 82.0551 17.956 82.0711 17.9C82.1111 17.812 82.1471 17.732 82.1791 17.66C82.2111 17.58 82.2551 17.492 82.3111 17.396C82.3671 17.292 82.4111 17.204 82.4431 17.132C82.4831 17.06 82.5431 16.96 82.6231 16.832C82.6631 16.776 82.7071 16.708 82.7551 16.628C82.8031 16.548 82.8631 16.48 82.9351 16.424C83.0071 16.36 83.0791 16.332 83.1511 16.34C83.2311 16.34 83.3311 16.392 83.4511 16.496C83.5151 16.576 83.5511 16.636 83.5591 16.676C83.5671 16.716 83.5351 16.792 83.4631 16.904C83.3991 17.04 83.3231 17.176 83.2351 17.312C83.1551 17.448 83.0791 17.584 83.0071 17.72C82.8791 17.896 82.8551 17.996 82.9351 18.02C83.0151 18.044 83.2391 18.028 83.6071 17.972C83.8391 17.932 84.0071 17.944 84.1111 18.008C84.2151 18.064 84.2751 18.16 84.2911 18.296C84.3151 18.488 84.2951 18.604 84.2311 18.644C84.1671 18.684 83.9831 18.704 83.6791 18.704C83.4871 18.736 83.3231 18.756 83.1871 18.764C83.0511 18.764 82.9511 18.764 82.8871 18.764C82.7831 18.772 82.7151 18.776 82.6831 18.776C82.6511 18.776 82.6031 18.784 82.5391 18.8C82.4751 18.816 82.4271 18.844 82.3951 18.884C82.3711 18.916 82.3431 18.964 82.3111 19.028C82.2791 19.06 82.2311 19.144 82.1671 19.28C82.1031 19.416 82.0231 19.564 81.9271 19.724C81.8151 20.06 81.7191 20.396 81.6391 20.732C81.5591 21.06 81.4951 21.38 81.4471 21.692C81.4151 21.892 81.4191 22.032 81.4591 22.112C81.4991 22.184 81.6031 22.228 81.7711 22.244C81.8591 22.252 81.9991 22.252 82.1911 22.244C82.3911 22.228 82.5471 22.204 82.6591 22.172C82.7471 22.132 82.8391 22.092 82.9351 22.052C83.0311 22.004 83.1191 21.956 83.1991 21.908C83.2711 21.868 83.3431 21.828 83.4151 21.788C83.4871 21.74 83.5231 21.716 83.5231 21.716C83.5631 21.652 83.6071 21.632 83.6551 21.656C83.7031 21.68 83.7431 21.74 83.7751 21.836C83.7751 21.932 83.7551 22.032 83.7151 22.136C83.6751 22.24 83.5271 22.364 83.2711 22.508C82.9111 22.732 82.5791 22.868 82.2751 22.916C81.9791 22.956 81.7271 22.956 81.5191 22.916Z" fill="#D4D4D8"/>
<path d="M2.574 24.09C1.734 24.09 1.344 23.676 1.404 22.848C1.56 20.988 2.166 16.608 3.222 9.708C3.282 9.324 3.432 9.054 3.672 8.898C3.912 8.742 4.23 8.664 4.626 8.664C5.01 8.664 5.268 8.724 5.4 8.844C5.544 8.964 5.616 9.162 5.616 9.438C5.616 9.522 5.604 9.684 5.58 9.924C5.496 10.728 5.286 11.88 4.95 13.38C5.61 11.676 6.342 10.476 7.146 9.78C7.95 9.084 8.844 8.736 9.828 8.736C10.608 8.736 11.22 9.012 11.664 9.564C12.12 10.116 12.348 10.896 12.348 11.904C12.348 12.3 12.294 12.792 12.186 13.38C12.786 11.724 13.488 10.536 14.292 9.816C15.096 9.096 16.02 8.736 17.064 8.736C17.904 8.736 18.546 9.006 18.99 9.546C19.446 10.086 19.674 10.842 19.674 11.814C19.674 12.234 19.632 12.726 19.548 13.29C19.464 13.854 19.35 14.544 19.206 15.36L18.81 17.574C18.666 18.378 18.522 19.314 18.378 20.382C18.234 21.45 18.138 22.266 18.09 22.83C18.054 23.286 17.934 23.61 17.73 23.802C17.526 23.994 17.202 24.09 16.758 24.09C15.906 24.09 15.48 23.73 15.48 23.01C15.48 22.602 15.546 21.96 15.678 21.084C15.822 20.196 16.02 19.05 16.272 17.646L16.704 15.252C16.956 13.812 17.082 12.816 17.082 12.264C17.082 11.856 16.998 11.55 16.83 11.346C16.662 11.13 16.434 11.022 16.146 11.022C15.57 11.022 14.976 11.394 14.364 12.138C13.752 12.87 13.158 14.1 12.582 15.828C12.018 17.556 11.562 19.824 11.214 22.632C11.142 23.184 11.004 23.568 10.8 23.784C10.608 23.988 10.272 24.09 9.792 24.09C9.384 24.09 9.084 24.006 8.892 23.838C8.712 23.658 8.622 23.346 8.622 22.902C8.622 22.326 8.688 21.63 8.82 20.814C8.952 19.986 9.12 19.038 9.324 17.97C9.876 15.066 10.152 13.194 10.152 12.354C10.152 11.898 10.062 11.562 9.882 11.346C9.714 11.13 9.45 11.022 9.09 11.022C8.502 11.022 7.89 11.364 7.254 12.048C6.63 12.72 6.018 13.932 5.418 15.684C4.818 17.436 4.32 19.812 3.924 22.812C3.816 23.664 3.366 24.09 2.574 24.09ZM32.5021 8.682C32.9701 8.646 33.3181 8.718 33.5461 8.898C33.7741 9.078 33.8881 9.336 33.8881 9.672C33.8881 10.296 33.5161 10.674 32.7721 10.806C31.8121 10.986 30.2521 11.076 28.0921 11.076H27.3181C26.9461 13.008 26.6521 14.574 26.4361 15.774L30.3601 15.702C30.8041 15.702 31.0981 15.78 31.2421 15.936C31.3981 16.08 31.4761 16.29 31.4761 16.566C31.4761 16.974 31.3561 17.292 31.1161 17.52C30.8881 17.736 30.5461 17.844 30.0901 17.844L26.0761 17.88C25.6921 20.388 25.4641 22.098 25.3921 23.01C25.3441 23.73 24.9181 24.09 24.1141 24.09C23.6821 24.09 23.3581 23.994 23.1421 23.802C22.9381 23.61 22.8361 23.346 22.8361 23.01C22.8361 22.626 22.8901 22.038 22.9981 21.246C23.1181 20.454 23.2981 19.35 23.5381 17.934L22.4941 17.952C22.2301 17.952 22.0081 17.904 21.8281 17.808C21.6601 17.7 21.5761 17.478 21.5761 17.142C21.5761 16.746 21.6841 16.428 21.9001 16.188C22.1161 15.948 22.4161 15.828 22.8001 15.828L23.8981 15.81C24.0421 15.006 24.3241 13.542 24.7441 11.418L24.8161 11.04L23.8081 10.986C23.2321 10.938 22.8001 10.818 22.5121 10.626C22.2361 10.434 22.0981 10.134 22.0981 9.726C22.0981 9.39 22.2061 9.15 22.4221 9.006C22.6381 8.862 22.9861 8.79 23.4661 8.79C23.9581 8.79 24.6721 8.802 25.6081 8.826C26.3041 8.862 27.0121 8.88 27.7321 8.88C29.1961 8.88 30.7861 8.814 32.5021 8.682Z" fill="#F88000"/>
</svg>
